<?xml version="1.0" standalone="no"?>
<!DOCTYPE svg PUBLIC "-//W3C//DTD SVG 20010904//EN"
 "http://www.w3.org/TR/2001/REC-SVG-20010904/DTD/svg10.dtd">
<svg version="1.0" xmlns="http://www.w3.org/2000/svg"
 width="338.000000pt" height="109.000000pt" viewBox="0 0 338.000000 109.000000"
 preserveAspectRatio="xMidYMid meet">

<g transform="translate(0.000000,109.000000) scale(0.100000,-0.100000)"
fill="#000000" stroke="none">
<path d="M0 545 l0 -545 1690 0 1690 0 0 545 0 545 -1690 0 -1690 0 0 -545z
m711 394 l229 -131 -2 -266 -3 -266 -75 -43 -75 -43 -5 262 -5 262 -105 61
c-58 34 -123 71 -146 84 l-41 23 -146 -83 -146 -84 -1 -263 c0 -145 -3 -262
-8 -260 -4 2 -40 21 -80 43 l-72 40 2 269 3 268 220 128 c121 70 222 128 224
129 2 1 107 -58 232 -130z m-146 -261 l75 -43 0 -91 0 -91 -71 -42 c-40 -22
-78 -41 -86 -41 -8 0 -46 19 -84 41 l-69 41 0 92 0 92 73 42 c39 23 76 42 80
42 4 0 41 -19 82 -42z m631 -63 c8 -11 14 -43 14 -73 0 -46 -3 -55 -20 -59
l-21 -6 21 -14 c17 -12 20 -25 20 -89 l0 -74 -40 0 -40 0 0 75 c0 43 -4 75
-10 75 -6 0 -10 -32 -10 -75 l0 -75 -45 0 -45 0 0 171 0 172 81 -5 c65 -4 85
-9 95 -23z m194 -10 c0 -31 -3 -35 -25 -35 -22 0 -25 -4 -25 -35 0 -31 3 -35
25 -35 21 0 25 -5 25 -30 0 -25 -4 -30 -25 -30 -22 0 -25 -4 -25 -35 0 -32 2
-35 30 -35 28 0 30 -3 30 -35 l0 -35 -75 0 -75 0 0 170 0 170 70 0 70 0 0 -35z
m122 -27 l3 -63 24 63 c23 61 24 62 61 62 l37 0 -26 -74 -25 -74 23 -83 c14
-46 26 -90 29 -97 3 -10 -6 -12 -39 -10 l-43 3 -21 65 -20 65 -3 -67 -3 -68
-39 0 -40 0 0 170 0 170 40 0 39 0 3 -62z m308 51 c0 -13 38 -264 46 -301 5
-27 4 -28 -40 -28 -44 0 -46 1 -46 30 0 23 -4 30 -20 30 -16 0 -20 -7 -20 -30
0 -29 -2 -30 -46 -30 l-47 0 6 36 c4 20 14 97 23 170 l18 134 63 0 c38 0 63
-4 63 -11z m191 -61 c12 -69 13 -71 20 -38 4 19 11 52 14 73 l6 37 54 0 55 0
0 -170 0 -170 -40 0 -40 0 -1 103 -2 102 -13 -95 c-7 -52 -13 -98 -13 -102 -1
-7 -50 -12 -52 -5 0 1 -6 45 -13 97 l-13 95 -2 -82 c-1 -104 -5 -113 -47 -113
l-34 0 0 170 0 170 54 0 54 0 13 -72z m380 0 c12 -69 13 -71 20 -38 4 19 11
52 14 73 l6 37 54 0 55 0 0 -170 0 -170 -40 0 -40 0 -1 103 -2 102 -13 -95
c-7 -52 -13 -98 -13 -102 -1 -7 -50 -12 -52 -5 0 1 -6 45 -13 97 l-13 95 -2
-82 c-1 -104 -5 -113 -47 -113 l-34 0 0 170 0 170 54 0 54 0 13 -72z m329 37
c0 -31 -3 -35 -25 -35 -22 0 -25 -4 -25 -35 0 -31 3 -35 25 -35 21 0 25 -5 25
-30 0 -25 -4 -30 -25 -30 -22 0 -25 -4 -25 -35 0 -32 2 -35 30 -35 28 0 30 -3
30 -35 l0 -35 -75 0 -75 0 0 170 0 170 70 0 70 0 0 -35z m220 10 c18 -16 20
-31 20 -151 0 -162 -1 -164 -122 -164 l-78 0 0 171 0 172 80 -5 c58 -3 85 -10
100 -23z m150 -145 l0 -170 -45 0 -45 0 0 170 0 170 45 0 45 0 0 -170z m175
156 c31 -13 35 -19 35 -50 0 -35 -1 -36 -40 -36 -34 0 -40 3 -40 21 0 11 -5
19 -12 17 -22 -8 -19 -27 9 -50 82 -68 93 -84 93 -135 0 -58 -18 -81 -73 -90
-54 -8 -103 12 -116 49 -20 57 -15 68 28 68 35 0 39 -3 45 -31 6 -34 29 -35
34 -2 2 14 -13 32 -52 62 -59 45 -66 57 -66 102 0 77 70 110 155 75z m-2802
-411 c16 -11 29 -7 93 31 41 24 77 44 79 44 3 0 5 -42 5 -92 l0 -93 -75 -42
c-41 -24 -77 -43 -81 -43 -3 0 -40 19 -80 42 l-74 42 0 94 0 94 58 -32 c31
-18 65 -38 75 -45z"/>
<path d="M1110 540 c0 -22 5 -40 10 -40 6 0 10 18 10 40 0 22 -4 40 -10 40 -5
0 -10 -18 -10 -40z"/>
<path d="M1751 525 c-1 -16 -4 -47 -7 -67 -6 -33 -4 -38 13 -38 18 0 20 5 15
48 -3 26 -8 56 -13 67 -6 17 -8 15 -8 -10z"/>
<path d="M2850 470 c0 -67 4 -110 10 -110 6 0 10 43 10 110 0 67 -4 110 -10
110 -6 0 -10 -43 -10 -110z"/>
</g>
</svg>
