<?xml version="1.0" standalone="no"?>
<!DOCTYPE svg PUBLIC "-//W3C//DTD SVG 20010904//EN"
 "http://www.w3.org/TR/2001/REC-SVG-20010904/DTD/svg10.dtd">
<svg version="1.0" xmlns="http://www.w3.org/2000/svg"
 width="236.000000pt" height="236.000000pt" viewBox="0 0 236.000000 236.000000"
 preserveAspectRatio="xMidYMid meet">

<g transform="translate(0.000000,236.000000) scale(0.100000,-0.100000)"
fill="#000000" stroke="none">
<path d="M1055 2246 c-135 -40 -232 -81 -306 -128 -48 -31 -70 -38 -150 -48
-142 -17 -264 -49 -381 -99 -44 -19 -46 -21 -51 -73 -34 -298 -6 -636 74 -879
134 -410 436 -730 865 -920 l72 -31 123 61 c535 266 815 669 880 1267 12 110
8 511 -6 546 -4 10 -47 31 -108 52 -122 43 -211 64 -326 77 -67 8 -95 16 -131
39 -74 47 -188 96 -313 134 -65 20 -121 36 -125 36 -4 -1 -56 -16 -117 -34z
m392 -99 c43 -18 104 -50 137 -71 51 -32 70 -39 150 -47 102 -11 251 -47 341
-82 l60 -23 8 -100 c12 -149 1 -421 -23 -555 -86 -492 -334 -834 -778 -1072
-157 -84 -163 -85 -246 -48 -103 47 -241 131 -341 208 -273 211 -444 492 -521
857 -22 101 -27 157 -31 342 -3 122 -2 256 1 297 l8 75 106 36 c110 36 255 66
322 66 21 0 56 11 81 25 113 64 234 117 338 148 l113 34 99 -29 c54 -16 134
-43 176 -61z"/>
<path d="M1080 2199 c-140 -43 -217 -75 -299 -124 -79 -48 -93 -52 -168 -59
-87 -7 -234 -41 -332 -76 l-59 -22 -8 -86 c-3 -47 -4 -176 -1 -286 8 -282 47
-467 147 -682 94 -203 260 -400 450 -536 91 -65 336 -198 364 -198 8 0 66 27
130 59 314 161 531 372 666 646 98 201 143 377 162 645 13 182 0 426 -23 441
-50 33 -326 99 -413 99 -26 0 -57 11 -95 34 -96 58 -161 87 -283 127 -135 44
-149 45 -238 18z m395 -281 c3 -9 11 -15 18 -13 66 20 59 25 143 -112 8 -13
20 -20 28 -17 8 3 18 -1 22 -8 13 -19 33 -99 34 -130 0 -16 9 -33 22 -42 16
-11 18 -16 7 -16 -24 0 -39 21 -39 54 -1 17 -7 54 -14 81 -11 40 -18 50 -35
51 -12 1 -23 3 -24 5 -2 2 -21 34 -43 71 -35 61 -54 82 -54 61 0 -5 -14 -8
-30 -8 -22 0 -35 8 -48 26 -62 93 -72 97 -152 62 -47 -21 -50 -28 -49 -99 l2
-61 49 -12 c27 -6 60 -11 74 -11 23 0 30 -15 25 -56 -1 -6 19 -19 45 -29 40
-15 45 -20 41 -42 -4 -20 4 -34 38 -67 45 -42 61 -44 91 -7 13 17 52 9 85 -18
l23 -18 -23 -12 c-19 -10 -25 -9 -42 11 -12 14 -22 18 -25 12 -16 -37 -28 -44
-55 -30 -41 21 -54 6 -31 -35 34 -58 37 -80 13 -86 -25 -6 -24 -3 -7 -75 15
-63 13 -68 -19 -68 -18 0 -24 -9 -35 -56 -14 -57 -35 -78 -51 -53 -8 12 -11
11 -20 -4 -6 -10 -24 -34 -41 -53 -17 -19 -36 -51 -43 -72 -12 -34 -19 -39
-87 -64 -82 -31 -133 -38 -85 -12 25 13 27 20 27 74 l0 59 35 7 c19 3 39 12
46 20 6 8 21 14 33 14 21 0 136 97 136 115 0 6 9 16 20 23 13 8 20 23 20 41 0
17 4 32 9 36 5 3 8 46 7 95 -3 74 -8 99 -31 146 -35 71 -108 159 -124 149 -5
-2 -11 2 -15 10 -3 8 -13 15 -22 15 -10 0 -25 7 -35 16 -27 24 -112 29 -187 9
-74 -19 -128 -41 -137 -55 -3 -5 -12 -7 -21 -3 -13 5 -13 8 1 23 15 16 14 18
-1 24 -14 5 -8 11 25 28 59 29 127 134 74 113 -10 -4 -40 -10 -68 -15 -68 -11
-104 -29 -120 -59 -13 -25 -13 -24 -8 17 4 33 2 42 -9 42 -18 0 -51 -35 -71
-73 l-15 -28 -6 26 c-4 14 -10 25 -14 25 -14 0 -42 -69 -43 -108 -1 -20 -3
-29 -6 -19 -7 29 -27 14 -41 -31 -12 -36 -11 -48 3 -94 9 -29 18 -60 21 -68 2
-8 -6 4 -18 28 -12 23 -25 42 -30 42 -4 0 -12 -17 -17 -37 -13 -47 0 -100 36
-145 l27 -33 -35 33 c-19 17 -38 32 -42 32 -4 0 -7 -17 -7 -37 0 -46 26 -92
74 -128 20 -15 33 -31 31 -36 -3 -4 4 -13 15 -19 38 -20 21 9 -38 68 -54 53
-82 105 -67 121 4 3 27 -16 52 -43 41 -46 44 -47 37 -20 -3 16 -14 40 -23 52
-36 52 -51 89 -51 125 0 20 4 37 8 37 4 0 19 -21 32 -47 23 -46 24 -47 28 -20
2 16 -4 49 -12 74 -18 51 -20 101 -7 122 6 10 14 -4 26 -45 16 -54 18 -57 25
-33 4 15 3 46 -2 70 -12 52 8 151 23 114 4 -11 8 -39 8 -63 1 -50 21 -49 21 1
0 37 30 106 53 126 15 12 17 11 17 -5 0 -11 -4 -34 -9 -52 -12 -42 5 -39 34 5
11 17 29 37 40 44 25 15 145 39 145 28 0 -5 -16 -24 -35 -43 -32 -32 -86 -56
-126 -56 -9 0 -27 -9 -40 -21 -16 -14 -18 -19 -7 -15 45 14 86 17 92 7 10 -15
-50 -49 -111 -62 -49 -11 -52 -14 -72 -62 -19 -45 -19 -49 -4 -35 27 23 83 50
83 39 0 -5 -26 -35 -58 -68 -54 -53 -81 -93 -65 -93 4 0 19 12 35 27 15 14 30
24 34 21 7 -8 -19 -58 -52 -97 -20 -24 -25 -38 -19 -58 l6 -27 16 32 c20 41
53 62 53 34 0 -27 -20 -83 -41 -112 -16 -23 -16 -27 -1 -55 14 -26 17 -27 20
-10 19 109 47 112 39 5 -4 -52 -2 -89 5 -105 16 -35 23 -31 26 12 4 54 9 51
22 -14 9 -43 20 -65 43 -85 35 -32 46 -30 23 4 -9 12 -16 42 -16 66 0 39 2 43
16 31 22 -18 61 -98 70 -143 l7 -38 -79 3 c-63 3 -86 9 -111 27 -18 13 -33 28
-33 34 0 10 43 7 100 -7 l25 -7 -25 21 c-14 11 -48 25 -77 31 -39 8 -59 20
-79 43 -32 38 -17 47 32 18 43 -26 47 -26 35 -2 -6 10 -35 32 -64 49 -49 28
-95 77 -84 89 3 2 15 -1 27 -7 37 -20 33 -4 -5 20 -20 12 -39 20 -42 17 -12
-13 9 -58 42 -92 20 -19 31 -35 25 -35 -22 0 -8 -35 32 -74 23 -22 42 -50 43
-60 2 -26 51 -64 100 -77 22 -6 67 -9 100 -7 34 3 73 0 90 -7 17 -7 39 -15 50
-19 18 -7 17 -9 -11 -21 -18 -7 -34 -17 -37 -23 -7 -11 84 -5 127 9 19 6 33 6
40 -1 13 -13 106 -13 106 0 0 5 -12 13 -26 16 -14 4 -22 10 -17 14 17 15 103
32 132 25 46 -10 170 15 169 35 -4 52 3 80 20 80 9 0 36 16 60 34 24 19 48 36
55 39 8 2 7 15 -5 45 -16 41 -16 42 10 70 15 16 35 52 46 80 10 29 22 52 26
52 13 0 -40 -112 -66 -141 -14 -15 -20 -29 -15 -35 5 -5 12 -23 15 -39 6 -28
2 -34 -51 -73 -31 -23 -63 -42 -70 -42 -7 0 -13 -9 -13 -19 0 -11 -3 -26 -6
-35 -5 -13 2 -14 44 -9 35 4 59 1 81 -10 l31 -15 49 54 c27 30 53 54 56 54 10
0 165 -131 165 -139 0 -12 -187 -217 -215 -235 -14 -9 -23 -21 -20 -26 9 -15
-98 -92 -191 -136 -141 -68 -232 -88 -399 -88 -165 0 -265 21 -396 82 -83 39
-199 117 -199 134 0 5 -42 53 -94 106 -51 53 -108 114 -126 135 l-32 37 48 43
c64 56 115 97 123 97 3 0 32 -29 64 -65 46 -51 62 -63 72 -55 10 9 60 0 199
-36 l185 -47 26 22 27 21 -28 11 c-16 7 -59 11 -96 10 -38 -1 -86 3 -108 9
-50 14 -113 67 -107 91 3 11 -4 22 -20 30 -28 15 -67 73 -60 92 2 6 -9 27 -24
45 -33 37 -46 79 -31 94 7 7 4 20 -9 42 -22 37 -26 104 -5 112 11 4 12 13 6
35 -12 40 -1 98 21 112 12 8 16 19 13 34 -8 28 13 89 35 105 9 7 22 32 29 54
15 52 36 72 57 54 11 -10 20 -5 46 24 35 40 58 46 66 16 5 -19 7 -19 28 -6 13
9 49 20 82 25 32 5 66 12 75 16 25 10 33 -17 14 -53 -15 -29 -64 -76 -87 -84
-8 -3 -9 -9 -3 -21 9 -15 12 -15 39 -1 17 9 39 17 50 19 11 2 40 9 65 15 25 6
64 11 88 12 25 0 42 4 43 11 0 7 1 39 2 72 l2 60 50 24 c28 13 57 27 65 31 11
6 27 -5 57 -38 23 -26 45 -55 48 -64z m-105 36 c0 -23 -3 -25 -30 -19 -25 5
-30 3 -30 -12 0 -11 5 -24 11 -30 7 -7 2 -15 -15 -27 -15 -9 -26 -13 -27 -9
-5 36 -5 84 0 92 8 12 50 30 74 30 12 1 17 -7 17 -25z m158 -96 c-3 -20 -8
-22 -36 -20 -33 3 -34 3 -27 -27 5 -23 2 -32 -14 -40 -24 -13 -37 1 -25 27 4
9 6 24 5 33 -3 25 30 44 82 48 14 1 18 -5 15 -21z m-333 -68 c8 14 25 3 25
-16 0 -8 -4 -13 -9 -10 -4 3 -17 -1 -27 -9 -27 -20 -37 -18 -24 4 13 25 13 41
0 21 -5 -8 -10 -10 -10 -4 0 18 12 24 26 13 8 -7 14 -7 19 1z m75 -10 c11 -6
17 -17 14 -25 -4 -8 -10 -12 -15 -9 -5 3 -6 10 -3 16 4 6 -1 8 -15 3 -15 -5
-21 -2 -21 9 0 18 13 20 40 6z m-127 -14 c7 -17 -11 -36 -34 -36 -22 0 -33 16
-25 35 7 19 52 19 59 1z m-83 -6 c0 -13 -28 -25 -38 -16 -3 4 0 11 8 16 20 13
30 12 30 0z m269 -14 c7 -9 8 -17 2 -20 -5 -3 -11 -3 -14 1 -2 5 -2 2 -1 -4 2
-7 -5 -13 -16 -13 -22 0 -26 20 -8 38 16 16 23 15 37 -2z m317 1 c3 -3 0 -15
-8 -25 -12 -18 -16 -18 -33 -6 -28 21 -35 17 -35 -16 0 -16 -4 -30 -9 -30 -5
0 -16 -3 -25 -6 -27 -10 -19 28 17 84 9 13 80 12 93 -1z m-436 -22 c0 -15 -6
-25 -14 -25 -19 0 -30 32 -14 42 21 13 28 9 28 -17z m47 9 c8 -21 -13 -42 -28
-27 -13 13 -5 43 11 43 6 0 13 -7 17 -16z m-342 -41 c-19 -20 -37 -45 -41 -57
-4 -11 -11 -24 -16 -27 -15 -10 -30 -95 -31 -174 -1 -60 2 -77 25 -115 15 -25
32 -56 38 -70 9 -22 25 -35 92 -76 10 -6 26 -18 35 -26 10 -8 39 -21 66 -29
l47 -13 0 -61 c0 -35 5 -67 13 -74 10 -11 9 -13 -3 -9 -8 3 -44 15 -80 27 -64
21 -66 22 -79 67 -14 46 -66 124 -88 131 -6 2 -13 -4 -16 -14 -4 -16 -5 -16
-6 -1 -4 63 86 -17 116 -103 17 -46 21 -50 76 -69 50 -16 58 -17 53 -4 -3 9
-6 35 -6 59 0 43 0 43 -51 60 -28 10 -53 23 -56 31 -3 8 -11 14 -18 14 -19 0
-105 69 -105 85 0 8 -14 35 -32 61 -30 44 -32 53 -31 128 2 111 13 154 61 225
22 34 37 61 34 61 -4 0 -27 -12 -52 -26 -24 -14 -52 -23 -62 -21 -10 3 -16 2
-13 -3 3 -4 -1 -10 -9 -13 -10 -4 -12 0 -9 14 4 13 14 19 32 19 14 0 49 11 76
24 67 31 83 23 40 -21z m99 38 c3 -4 -1 -17 -9 -27 -10 -15 -16 -16 -26 -7 -6
6 -9 19 -6 27 7 17 32 22 41 7z m66 -15 c0 -7 -7 -19 -16 -26 -12 -11 -18 -11
-31 2 -8 9 -12 21 -9 27 10 16 56 14 56 -3z m85 -6 c14 -16 28 -19 66 -16 37
2 46 0 42 -10 -3 -10 -23 -14 -60 -14 -47 0 -54 2 -49 16 5 13 4 14 -7 6 -16
-14 -27 -6 -27 20 0 23 12 23 35 -2z m213 8 c19 -19 15 -48 -7 -48 -28 0 -47
26 -31 45 15 18 22 19 38 3z m-408 -29 c0 -5 -7 -9 -15 -9 -15 0 -20 12 -9 23
8 8 24 -1 24 -14z m158 -7 c2 -7 -6 -12 -17 -12 -21 0 -27 11 -14 24 9 9 26 2
31 -12z m192 5 c0 -7 -9 -13 -20 -14 -20 -2 -26 8 -13 20 11 12 33 8 33 -6z
m-380 -23 c0 -8 -4 -12 -10 -9 -6 4 -10 -5 -10 -19 0 -16 -6 -26 -15 -26 -8 0
-15 6 -15 14 0 7 7 19 15 26 8 7 15 19 15 27 0 8 5 11 10 8 6 -3 10 -13 10
-21z m85 16 c3 -5 -1 -10 -10 -10 -9 0 -13 5 -10 10 3 6 8 10 10 10 2 0 7 -4
10 -10z m415 -40 c0 -10 -4 -21 -9 -24 -13 -9 -44 32 -37 49 8 22 46 1 46 -25z
m-618 -24 c-19 -26 -30 -51 -26 -60 3 -8 -1 -30 -10 -47 -15 -29 -15 -34 -1
-49 12 -13 14 -28 9 -59 -4 -22 -10 -41 -14 -41 -4 0 -3 18 2 41 15 59 -2 72
-44 33 l-31 -29 25 35 c30 42 58 94 58 111 0 6 -8 9 -19 6 -14 -3 -8 7 20 36
21 23 42 49 45 60 3 10 8 16 12 13 3 -3 -9 -26 -26 -50z m558 -66 l0 -110 -65
0 -65 0 0 35 c0 34 -1 35 -40 35 l-40 0 0 75 0 75 105 0 105 0 0 -110z m-430
68 c0 -18 -2 -20 -9 -8 -6 8 -7 18 -5 22 9 14 14 9 14 -14z m521 -24 c10 -13
10 -17 -2 -25 -9 -6 -18 -3 -26 8 -22 29 4 46 28 17z m-576 -21 c-2 -16 -4
-31 -4 -35 -1 -5 -7 -8 -15 -8 -9 0 -12 -8 -9 -24 5 -25 -11 -44 -22 -26 -3 5
-2 10 4 10 6 0 8 17 5 41 -5 42 7 69 32 69 8 0 11 -10 9 -27z m53 -11 c-4 -33
-24 -39 -38 -12 -9 16 -9 25 0 35 17 21 42 6 38 -23z m477 18 c0 -22 -29 -18
-33 3 -3 14 1 18 15 15 10 -2 18 -10 18 -18z m341 -70 c-7 -36 -15 -71 -20
-78 -4 -7 -1 -15 8 -18 9 -3 13 -10 10 -16 -3 -5 -11 -2 -18 8 -9 12 -10 28
-3 58 6 22 14 58 19 80 15 61 18 37 4 -34z m-271 29 c8 -23 -7 -45 -24 -35
-12 8 -15 39 -4 49 12 12 22 7 28 -14z m-55 2 c0 -14 -28 -33 -40 -26 -20 12
-10 35 15 35 14 0 25 -4 25 -9z m-490 -71 c0 -33 -4 -60 -9 -60 -16 0 -21 30
-9 55 8 18 8 28 -1 39 -11 13 -9 17 17 25 1 1 2 -26 2 -59z m-30 35 c10 -12
10 -21 1 -41 -13 -30 -35 -27 -39 5 -7 46 14 65 38 36z m522 -30 c-9 -13 -21
-20 -27 -17 -5 3 -4 7 3 10 7 2 9 8 6 13 -3 6 -3 17 0 26 5 12 9 13 21 3 13
-10 12 -15 -3 -35z m-32 4 c0 -5 -4 -9 -10 -9 -5 0 -10 7 -10 16 0 8 5 12 10
9 6 -3 10 -10 10 -16z m90 -30 c0 -16 -4 -29 -10 -29 -12 0 -24 45 -15 60 11
18 25 1 25 -31z m-289 -9 c23 -1 23 -1 5 -15 -12 -9 -17 -22 -13 -35 6 -22 -3
-26 -21 -8 -9 9 -16 7 -32 -7 -21 -19 -27 -11 -11 14 6 10 3 20 -12 33 l-22
20 22 -5 c16 -4 24 1 29 16 6 19 8 19 19 4 7 -9 23 -17 36 -17z m246 -2 c-2
-34 -23 -49 -33 -23 -5 12 17 49 33 54 1 1 1 -13 0 -31z m-587 7 c0 -9 -6 -12
-15 -9 -8 4 -12 10 -9 15 8 14 24 10 24 -6z m539 -13 c-3 -32 1 -40 21 -45 24
-6 27 -39 5 -57 -12 -10 -16 -9 -21 4 -3 9 -14 16 -23 16 -14 1 -14 2 2 11 9
5 17 15 17 20 0 6 -3 8 -7 6 -5 -3 -9 12 -9 34 -1 22 2 36 8 33 5 -3 8 -13 7
-22z m305 -11 c27 -29 28 -29 8 -40 -29 -15 -31 -14 -42 14 -11 30 -26 32 -40
5 -9 -16 -14 -18 -35 -8 -19 9 -22 14 -14 25 6 7 20 13 30 13 11 0 19 5 19 10
0 21 47 9 74 -19z m-794 -6 c0 -7 -6 -18 -14 -24 -17 -14 -41 11 -33 33 7 17
47 10 47 -9z m170 0 c0 -41 25 -89 53 -104 25 -13 27 -19 27 -83 0 -81 -9 -89
-67 -60 -48 25 -97 74 -113 113 -13 30 -35 38 -43 17 -2 -8 -8 -9 -13 -4 -5 5
-4 10 2 13 7 2 11 12 9 21 -1 9 0 11 2 5 3 -7 8 -13 13 -13 4 0 6 27 3 60 l-6
60 67 0 c64 0 66 -1 66 -25z m-230 0 c0 -8 -4 -15 -10 -15 -5 0 -10 7 -10 15
0 8 5 15 10 15 6 0 10 -7 10 -15z m636 -51 c-7 -19 -22 -18 -30 3 -5 11 0 22
11 31 15 11 18 11 21 -3 2 -9 1 -23 -2 -31z m-546 15 c0 -5 -4 -9 -10 -9 -5 0
-10 7 -10 16 0 8 5 12 10 9 6 -3 10 -10 10 -16z m394 -2 c9 -14 6 -27 -14 -65
-14 -26 -31 -46 -38 -45 -6 2 -9 -3 -6 -11 6 -16 -32 -46 -57 -46 -9 0 -21 6
-27 13 -13 16 27 103 68 147 31 34 56 36 74 7z m-464 -2 c9 -11 16 -12 25 -5
9 8 14 6 19 -6 8 -20 -2 -33 -12 -17 -5 8 -13 9 -22 3 -26 -16 -40 -11 -40 15
0 28 12 32 30 10z m-53 -110 c14 -10 44 -112 42 -145 -1 -13 -37 112 -38 133
-1 4 -5 7 -10 7 -6 0 -12 -17 -14 -37 -2 -21 -4 3 -4 52 0 50 2 70 4 46 3 -25
11 -50 20 -56z m91 51 c2 -10 -1 -23 -7 -29 -15 -15 -46 16 -37 38 8 21 40 15
44 -9z m475 -1 c-7 -21 -13 -19 -13 6 0 11 4 18 10 14 5 -3 7 -12 3 -20z m91
8 c9 -23 -20 -51 -35 -36 -9 9 -18 9 -31 2 -24 -13 -31 -8 -22 15 4 11 13 15
25 11 12 -4 21 -1 25 9 8 21 30 20 38 -1z m-99 -56 c0 -26 -20 -25 -23 2 -3
16 1 22 10 19 7 -3 13 -12 13 -21z m-439 -2 c4 -8 3 -23 0 -32 -6 -15 -8 -15
-23 -1 -16 17 -12 48 7 48 6 0 13 -7 16 -15z m502 -4 c3 -8 0 -11 -7 -7 -6 4
-11 1 -11 -8 0 -9 -6 -13 -14 -10 -19 7 -8 46 12 42 8 -2 17 -9 20 -17z m-468
-6 c0 -8 -4 -15 -10 -15 -5 0 -10 7 -10 15 0 8 5 15 10 15 6 0 10 -7 10 -15z
m690 -32 c16 -47 11 -58 -19 -48 -16 5 -19 12 -14 36 6 32 2 34 -28 18 -16 -8
-25 -7 -40 7 -27 24 -15 33 39 31 46 -2 47 -3 62 -44z m-320 17 c0 -5 -5 -10
-11 -10 -5 0 -7 5 -4 10 3 6 8 10 11 10 2 0 4 -4 4 -10z m-335 -26 c14 -9 22
-20 19 -25 -3 -5 2 -6 10 -3 18 7 20 -4 7 -25 -8 -12 -12 -12 -25 -2 -9 8 -16
20 -16 27 0 8 -6 11 -15 8 -18 -7 -47 14 -39 27 8 14 32 11 59 -7z m390 6 c-3
-5 -13 -10 -21 -10 -8 0 -12 -4 -9 -10 3 -6 -1 -7 -9 -4 -30 12 -16 34 21 34
14 0 21 -4 18 -10z m-49 -32 c8 -12 -24 -40 -41 -35 -5 2 -11 13 -13 25 -3 18
2 22 22 22 14 0 28 -5 32 -12z m-67 -44 c-15 -18 -35 -18 -43 1 -7 19 24 37
42 23 9 -8 9 -14 1 -24z m-183 12 c10 -8 16 -18 12 -21 -12 -12 -58 4 -58 20
0 19 20 19 46 1z m132 -27 c3 -11 2 -11 -7 1 -9 13 -11 12 -11 -4 0 -15 -3
-17 -11 -9 -13 13 -2 36 14 30 6 -2 12 -10 15 -18z m264 7 c8 -8 23 -16 34
-18 15 -3 19 -13 21 -50 2 -53 -7 -64 -36 -46 -19 11 -19 14 -4 30 21 23 10
50 -19 46 -19 -2 -24 2 -26 25 -4 29 9 35 30 13z"/>
<path d="M1289 1797 c7 -9 19 -17 27 -17 7 0 29 -9 48 -21 35 -21 36 -21 36
-1 0 15 -11 22 -44 31 -24 6 -52 14 -62 18 -17 6 -17 5 -5 -10z"/>
<path d="M1435 1690 c29 -30 43 -52 70 -110 19 -40 31 -215 15 -225 -6 -3 -10
-19 -10 -36 0 -16 -8 -37 -19 -48 -10 -10 -20 -23 -22 -28 -9 -21 -121 -113
-139 -113 -10 0 -22 -4 -25 -10 -3 -5 -23 -14 -45 -20 l-38 -10 -4 -60 c-2
-38 1 -58 7 -56 6 3 34 13 63 22 40 14 52 22 52 38 0 24 19 54 72 116 32 36
40 41 53 30 17 -14 18 -12 40 62 9 32 18 44 35 46 23 4 23 2 3 104 -4 20 0 29
16 37 l21 12 -26 50 c-23 47 -24 52 -9 69 15 16 13 20 -25 50 -32 25 -39 36
-34 55 6 25 -1 32 -48 46 l-31 9 28 -30z"/>
<path d="M423 1019 c-40 -33 -73 -65 -73 -69 0 -12 49 -69 145 -167 44 -45 85
-90 91 -100 18 -30 105 -92 181 -129 124 -60 246 -87 403 -87 159 -1 265 22
395 83 80 37 185 107 185 123 0 5 54 65 120 134 66 70 120 129 119 132 0 3
-34 34 -75 69 l-75 63 -87 -89 c-81 -83 -188 -177 -229 -201 -17 -10 -17 -12
-1 -24 16 -12 14 -15 -19 -31 -38 -18 -53 -16 -28 4 8 7 15 16 15 20 0 4 -35
15 -77 25 -87 20 -103 29 -85 47 9 9 12 8 12 -4 0 -11 13 -18 42 -23 24 -4 60
-14 80 -21 21 -7 38 -9 38 -5 0 5 32 32 70 62 70 53 83 66 55 55 -8 -3 -26 -1
-38 5 -19 8 -49 4 -143 -21 -65 -17 -132 -33 -148 -36 -16 -2 -32 -7 -35 -10
-3 -4 4 -4 17 -1 12 3 22 0 22 -5 0 -6 -12 -8 -31 -4 -17 3 -39 6 -48 7 -9 0
67 22 169 48 102 26 187 44 188 39 8 -19 60 -6 95 23 20 17 37 34 37 39 0 14
-83 22 -112 11 -16 -6 -28 -17 -28 -24 0 -9 -67 -28 -219 -62 l-218 -48 -244
61 c-134 34 -245 59 -248 56 -3 -2 8 -17 25 -33 25 -24 52 -33 184 -61 85 -18
163 -36 173 -39 11 -4 -15 -14 -70 -25 -114 -24 -134 -32 -127 -51 8 -20 19
-19 176 19 136 33 137 33 207 18 45 -10 71 -20 71 -29 0 -14 -16 -18 -22 -5
-1 5 -30 15 -63 23 -58 14 -64 14 -188 -17 -71 -18 -131 -34 -133 -37 -7 -6
41 -22 131 -43 84 -20 238 -22 319 -5 l58 13 -31 19 c-17 10 -31 24 -31 31 0
9 -3 9 -12 0 -20 -20 -29 -13 -11 8 20 23 33 26 33 7 0 -26 40 -52 80 -52 52
0 30 -11 -61 -31 -145 -33 -326 -19 -470 35 -79 30 -86 36 -69 56 11 14 10 18
-11 33 -80 56 -289 254 -289 274 0 16 -16 6 -87 -53z m163 -60 c5 -9 -48 -69
-61 -69 -2 0 -16 -11 -31 -25 -21 -19 -30 -22 -41 -14 -7 7 -12 13 -11 14 57
50 125 105 130 105 4 0 10 -5 14 -11z m1239 -48 c57 -47 72 -70 50 -78 -10 -3
-30 13 -108 84 -24 22 -28 43 -9 43 4 0 34 -22 67 -49z m-1186 -1 l34 -29 -50
-48 c-79 -76 -81 -77 -98 -63 -14 11 -8 21 45 70 33 32 60 61 60 66 0 7 -18
-7 -83 -68 -44 -42 -55 -45 -63 -23 -6 15 32 64 51 65 6 1 21 14 35 30 13 17
27 30 30 30 3 -1 20 -14 39 -30z m1107 5 c4 -8 10 -15 15 -15 6 0 23 -13 39
-30 16 -16 33 -30 39 -30 16 0 20 -28 5 -40 -16 -14 -23 -10 -92 58 -24 24
-46 42 -48 40 -6 -6 54 -68 65 -68 6 0 11 -7 11 -15 0 -8 6 -15 14 -15 22 0
30 -19 16 -35 -7 -8 -15 -15 -19 -15 -4 0 -35 27 -70 60 l-62 59 33 30 c38 35
46 37 54 16z m-1031 -70 c25 -20 27 -24 11 -25 -28 0 -101 -45 -120 -74 -10
-16 -22 -23 -31 -20 -20 8 -20 44 0 44 8 0 15 7 15 16 0 9 8 18 18 21 10 2 29
18 43 34 13 16 26 29 29 29 3 0 19 -11 35 -25z m963 -10 c15 -14 45 -41 66
-60 38 -34 39 -37 22 -53 -17 -16 -19 -16 -34 8 -30 44 -51 60 -97 72 l-45 12
27 23 c16 12 29 22 31 23 2 0 15 -11 30 -25z m-906 -41 c22 -12 27 -19 19 -27
-8 -8 -20 -7 -46 7 -19 11 -35 23 -35 28 0 13 28 9 62 -8z m-39 -23 c124 -85
241 -122 407 -128 104 -4 140 -2 211 15 99 24 179 57 244 102 28 19 52 29 64
25 23 -7 54 -42 69 -77 10 -26 9 -29 -31 -61 -142 -113 -366 -177 -581 -164
-179 11 -357 73 -474 166 -52 41 -52 42 -37 70 13 26 69 81 81 81 3 0 24 -13
47 -29z m887 21 c0 -12 -59 -44 -70 -37 -16 10 -12 21 13 33 26 13 57 15 57 4z
m-201 -48 c2 -2 -7 -4 -22 -4 -14 0 -29 5 -32 10 -6 10 42 4 54 -6z"/>
<path d="M710 722 c0 -10 -7 -28 -16 -40 -22 -31 -7 -27 25 7 25 27 26 29 9
40 -15 9 -18 8 -18 -7z"/>
<path d="M1618 718 c7 -7 12 -17 12 -22 0 -6 -5 -5 -12 2 -7 7 -18 12 -25 12
-15 0 -7 -19 22 -55 16 -20 16 -19 9 5 -6 22 -5 23 10 11 9 -8 19 -11 22 -8 8
8 -25 67 -38 67 -9 0 -9 -3 0 -12z"/>
<path d="M742 670 c-25 -33 -29 -48 -8 -31 11 10 16 8 24 -6 9 -15 12 -13 20
17 15 58 -2 67 -36 20z"/>
<path d="M1540 663 c0 -39 15 -61 24 -37 6 15 9 16 16 4 5 -8 12 -12 15 -8 8
7 -34 68 -47 68 -4 0 -8 -12 -8 -27z"/>
<path d="M805 644 c-18 -43 -18 -44 -5 -44 6 0 10 7 10 16 0 10 6 14 14 11 13
-5 36 10 36 25 0 4 -9 12 -20 18 -17 9 -21 6 -35 -26z m35 6 c0 -5 -5 -10 -11
-10 -5 0 -7 5 -4 10 3 6 8 10 11 10 2 0 4 -4 4 -10z"/>
<path d="M1480 660 c-8 -5 -10 -10 -3 -10 6 0 16 -15 23 -32 7 -18 14 -28 17
-21 2 7 -1 21 -7 33 -6 11 -8 25 -5 30 8 13 -6 13 -25 0z"/>
<path d="M869 623 c-7 -16 -15 -32 -17 -37 -3 -4 5 -5 17 -1 14 4 21 2 22 -7
1 -16 17 30 18 55 2 27 -24 20 -40 -10z"/>
<path d="M1431 603 c1 -27 3 -40 6 -30 5 20 14 22 31 5 17 -17 15 -5 -5 37
-23 48 -33 44 -32 -12z"/>
<path d="M932 601 c-5 -23 -6 -41 -1 -41 5 0 9 8 9 18 1 13 4 12 14 -7 15 -26
20 -21 31 27 4 20 3 32 -4 32 -6 0 -12 -10 -12 -22 -1 -21 -2 -21 -6 -3 -9 38
-20 36 -31 -4z"/>
<path d="M1354 613 c2 -10 7 -28 11 -40 7 -24 29 -31 40 -13 3 6 -1 10 -10 10
-9 0 -18 12 -21 30 -4 17 -11 30 -16 30 -5 0 -7 -8 -4 -17z"/>
<path d="M1007 588 c-2 -18 -3 -36 0 -40 8 -14 41 -8 47 8 9 25 7 56 -4 49 -5
-3 -10 -17 -10 -31 0 -13 -5 -24 -11 -24 -8 0 -10 12 -6 35 3 19 2 35 -2 35
-5 0 -11 -15 -14 -32z"/>
<path d="M1297 613 c-3 -5 -2 -23 0 -40 4 -24 11 -33 24 -33 11 0 19 5 19 10
0 6 -3 9 -7 9 -22 -4 -25 3 -7 16 17 13 17 14 2 15 -21 0 -24 16 -5 23 7 3 6
6 -5 6 -9 1 -19 -2 -21 -6z"/>
<path d="M1080 570 c0 -35 3 -40 23 -39 12 0 16 3 10 6 -7 2 -13 20 -13 39 0
19 -4 34 -10 34 -5 0 -10 -18 -10 -40z"/>
<path d="M1149 575 c-6 -40 -4 -53 7 -43 3 3 4 23 2 44 l-3 39 -6 -40z"/>
<path d="M1224 598 c-4 -7 2 -18 14 -26 12 -8 22 -19 22 -24 0 -6 -7 -5 -15 2
-12 10 -15 10 -15 -4 0 -20 36 -21 44 -1 3 9 -3 20 -14 27 -24 15 -26 30 -3
21 11 -4 14 -3 9 5 -9 15 -33 15 -42 0z"/>
<path d="M1490 949 c-14 -6 -48 -8 -75 -5 -28 3 -68 1 -89 -5 -36 -10 -37 -11
-19 -24 17 -12 35 -10 128 11 60 13 111 26 113 29 9 9 -32 4 -58 -6z"/>
<path d="M1165 889 c-11 -4 -33 -8 -50 -9 -26 0 -27 -2 -12 -11 19 -11 107 -2
107 11 0 13 -24 18 -45 9z"/>
<path d="M714 882 c3 -5 30 -28 59 -51 l54 -41 84 18 84 19 -60 12 c-33 7 -85
19 -115 26 -103 25 -112 26 -106 17z"/>
<path d="M1500 750 c0 -5 5 -10 11 -10 5 0 7 5 4 10 -3 6 -8 10 -11 10 -2 0
-4 -4 -4 -10z"/>
<path d="M1235 1605 c-34 -33 -33 -63 3 -67 20 -2 28 -9 31 -28 3 -27 17 -40
41 -39 10 0 11 2 3 6 -7 2 -13 15 -13 28 0 16 7 25 25 29 30 8 32 28 4 67 -25
36 -61 38 -94 4z m29 -1 c9 -3 16 -11 16 -16 0 -6 -6 -5 -15 2 -8 6 -20 8 -26
4 -8 -4 -9 -3 -5 4 8 14 9 14 30 6z"/>
<path d="M1285 1370 c-3 -6 1 -7 9 -4 18 7 21 14 7 14 -6 0 -13 -4 -16 -10z"/>
<path d="M1283 1338 c-11 -13 -30 -37 -42 -55 -22 -32 -22 -32 -1 -43 11 -6
20 -9 21 -8 0 2 2 10 4 20 5 25 51 89 59 81 4 -4 4 0 0 10 -8 23 -16 21 -41
-5z"/>
</g>
</svg>
